<?xml version="1.0" encoding="UTF-8" standalone="no"?>
<svg width="28px" height="28px" viewBox="0 0 28 28" version="1.1" xmlns="http://www.w3.org/2000/svg" xmlns:xlink="http://www.w3.org/1999/xlink">
    <!-- Generator: Sketch 47.1 (45422) - http://www.bohemiancoding.com/sketch -->
    <title>chat@1x</title>
    <desc>Created with Sketch.</desc>
    <defs></defs>
    <g id="Symbols" stroke="none" stroke-width="1" fill="none" fill-rule="evenodd">
        <g id="icon/settings-copy-2" fill-rule="nonzero" fill="#626594">
            <g id="chat" transform="translate(3.876543, 4.000000)">
                <g id="Group">
                    <path d="M11.382716,19.4320988 C11.6049383,19.7283951 11.9753086,19.9012346 12.345679,19.9012346 C12.345679,19.9012346 12.345679,19.9012346 12.345679,19.9012346 C12.7654321,19.9012346 13.1604938,19.6790123 13.382716,19.3333333 C13.4320988,19.2592593 13.4814815,19.1604938 13.5061728,19.0617284 L14.3209877,16.1481481 L18.1481481,16.1481481 C19.2345679,16.1481481 20.1234568,15.2592593 20.1234568,14.1728395 L20.1234568,2.07407407 C20.1234568,0.987654321 19.2345679,0.0987654321 18.1481481,0.0987654321 L2.09876543,0.0987654321 C1.01234568,0.0987654321 0.12345679,0.987654321 0.12345679,2.07407407 L0.12345679,14.1728395 C0.12345679,15.2592593 1.01234568,16.1481481 2.09876543,16.1481481 L8.22222222,16.1481481 L11.382716,19.4320988 Z M2.09876543,2.07407407 L18.1481481,2.07407407 L18.1481481,14.1728395 L13.5802469,14.1728395 C13.1358025,14.1728395 12.7407407,14.4691358 12.6419753,14.8888889 L12,17.1851852 L9.38271605,14.4691358 C9.18518519,14.2716049 8.9382716,14.1728395 8.66666667,14.1728395 L2.09876543,14.1728395 L2.09876543,2.07407407 Z" id="Shape"></path>
                    <path d="M5.11111111,5.87654321 C3.87654321,5.87654321 2.88888889,6.86419753 2.88888889,8.09876543 C2.88888889,9.33333333 3.87654321,10.3209877 5.11111111,10.3209877 C6.34567901,10.3209877 7.33333333,9.33333333 7.33333333,8.09876543 C7.33333333,6.86419753 6.32098765,5.87654321 5.11111111,5.87654321 Z M5.11111111,8.83950617 C4.69135802,8.83950617 4.37037037,8.51851852 4.37037037,8.09876543 C4.37037037,7.67901235 4.69135802,7.35802469 5.11111111,7.35802469 C5.5308642,7.35802469 5.85185185,7.67901235 5.85185185,8.09876543 C5.85185185,8.51851852 5.50617284,8.83950617 5.11111111,8.83950617 Z" id="Shape"></path>
                    <path d="M12.2716049,8.09876543 C12.2716049,6.86419753 11.2839506,5.87654321 10.0493827,5.87654321 C8.81481481,5.87654321 7.82716049,6.86419753 7.82716049,8.09876543 C7.82716049,9.33333333 8.81481481,10.3209877 10.0493827,10.3209877 C11.2839506,10.3209877 12.2716049,9.33333333 12.2716049,8.09876543 Z M9.30864198,8.09876543 C9.30864198,7.67901235 9.62962963,7.35802469 10.0493827,7.35802469 C10.4691358,7.35802469 10.7901235,7.67901235 10.7901235,8.09876543 C10.7901235,8.51851852 10.4691358,8.83950617 10.0493827,8.83950617 C9.62962963,8.83950617 9.30864198,8.51851852 9.30864198,8.09876543 Z" id="Shape"></path>
                    <path d="M14.9876543,10.3209877 C16.2222222,10.3209877 17.2098765,9.33333333 17.2098765,8.09876543 C17.2098765,6.86419753 16.2222222,5.87654321 14.9876543,5.87654321 C13.7530864,5.87654321 12.7654321,6.86419753 12.7654321,8.09876543 C12.7654321,9.33333333 13.7530864,10.3209877 14.9876543,10.3209877 Z M14.9876543,7.35802469 C15.4074074,7.35802469 15.7283951,7.67901235 15.7283951,8.09876543 C15.7283951,8.51851852 15.4074074,8.83950617 14.9876543,8.83950617 C14.5679012,8.83950617 14.2469136,8.51851852 14.2469136,8.09876543 C14.2469136,7.67901235 14.5679012,7.35802469 14.9876543,7.35802469 Z" id="Shape"></path>
                </g>
            </g>
        </g>
    </g>
</svg>