<?xml version="1.0" encoding="UTF-8" standalone="no"?>
<svg width="28px" height="28px" viewBox="0 0 28 28" version="1.1" xmlns="http://www.w3.org/2000/svg" xmlns:xlink="http://www.w3.org/1999/xlink">
    <!-- Generator: Sketch 47.1 (45422) - http://www.bohemiancoding.com/sketch -->
    <title>contract@1x</title>
    <desc>Created with Sketch.</desc>
    <defs></defs>
    <g id="Symbols" stroke="none" stroke-width="1" fill="none" fill-rule="evenodd">
        <g id="icon/contract" fill-rule="nonzero" fill="#AAABCD">
            <g id="cintract" transform="translate(6.105263, 4.000000)">
                <g id="Group">
                    <path d="M13.4736842,19.8421053 C14.6315789,19.8421053 15.5789474,18.8947368 15.5789474,17.7368421 L15.5789474,6.02631579 L15.5789474,6.02631579 C15.5789474,5.73684211 15.4736842,5.47368421 15.2631579,5.26315789 L10.1578947,0.447368421 C9.94736842,0.263157895 9.71052632,0.157894737 9.44736842,0.157894737 L9.44736842,0.157894737 L2.34210526,0.157894737 C1.18421053,0.157894737 0.236842105,1.10526316 0.236842105,2.26315789 L0.236842105,17.7368421 C0.236842105,18.8947368 1.18421053,19.8421053 2.34210526,19.8421053 L13.4736842,19.8421053 Z M10.4736842,3.65789474 L11.8684211,4.97368421 L10.4736842,4.97368421 L10.4736842,3.65789474 Z M2.31578947,2.26315789 L8.36842105,2.26315789 L8.36842105,6.02631579 C8.36842105,6.60526316 8.84210526,7.07894737 9.42105263,7.07894737 L13.4736842,7.07894737 L13.4736842,17.7368421 L2.31578947,17.7368421 L2.31578947,2.26315789 Z" id="Shape"></path>
                    <rect id="Rectangle-path" x="3.23684211" y="9.97368421" width="4.60526316" height="2.10526316"></rect>
                    <rect id="Rectangle-path" x="3.23684211" y="13.4210526" width="8.28947368" height="2.10526316"></rect>
                </g>
            </g>
        </g>
    </g>
</svg>