<?xml version="1.0" encoding="UTF-8" standalone="no"?>
<svg width="28px" height="28px" viewBox="0 0 28 28" version="1.1" xmlns="http://www.w3.org/2000/svg" xmlns:xlink="http://www.w3.org/1999/xlink">
    <!-- Generator: Sketch 47.1 (45422) - http://www.bohemiancoding.com/sketch -->
    <title>help@1x</title>
    <desc>Created with Sketch.</desc>
    <defs></defs>
    <g id="Symbols" stroke="none" stroke-width="1" fill="none" fill-rule="evenodd">
        <g id="icon/help" fill-rule="nonzero" fill="#FFFFFF">
            <g id="help" transform="translate(7.000000, 3.500000)">
                <path d="M13.8460324,7.04812463 C13.8460324,3.29236426 10.7815163,0.227848135 7.02575594,0.227848135 C3.26999557,0.227848135 0.20547944,3.29236426 0.20547944,7.04812463 C0.20547944,9.444438 1.44971907,11.6333781 3.47736884,12.8776177 L3.47736884,13.8914426 C2.80916608,14.1679403 2.32529511,14.8361431 2.32529511,15.5965117 L2.32529511,18.3845302 C2.32529511,19.398355 3.1547882,20.2278481 4.16861308,20.2278481 L9.90594027,20.2278481 C10.9197652,20.2278481 11.7492582,19.398355 11.7492582,18.3845302 L11.7492582,15.5965117 C11.7492582,14.8131016 11.2653873,14.1679403 10.5971845,13.8914426 L10.5971845,12.8776177 C12.6017928,11.6333781 13.8460324,9.444438 13.8460324,7.04812463 Z M2.04879741,7.04812463 C2.04879741,4.30618915 4.28382045,2.07116611 7.02575594,2.07116611 C9.76769142,2.07116611 12.0027145,4.30618915 12.0027145,7.04812463 C12.0027145,8.93752555 10.9428066,10.6656362 9.2377375,11.5181707 C8.89211538,11.679461 8.70778359,12.0481246 8.73082506,12.4167882 C8.73082506,12.4167882 8.73082506,12.4398297 8.73082506,12.4398297 L8.73082506,13.7762352 L8.01653935,13.7762352 L8.01653935,10.4121799 L8.96123981,10.4121799 L8.96123981,8.56886196 L8.01653935,8.56886196 L8.01653935,7.64720297 C8.01653935,7.14029053 7.6017928,6.72554399 7.09488036,6.72554399 L5.82759926,6.72554399 C4.81377437,6.72554399 3.98428128,7.55503708 3.98428128,8.56886196 C3.98428128,9.58268685 4.81377437,10.4121799 5.82759926,10.4121799 L6.17322138,10.4121799 L6.17322138,13.7531938 L5.29764534,13.7531938 L5.29764534,12.4167882 C5.29764534,12.4167882 5.29764534,12.3937468 5.29764534,12.3937468 C5.32068681,12.0250832 5.13635502,11.679461 4.7907329,11.4951292 C3.10870525,10.6656362 2.04879741,8.93752555 2.04879741,7.04812463 Z M6.19626285,8.54582049 L5.85064073,8.54582049 L6.19626285,8.54582049 L6.19626285,8.54582049 Z M4.14557161,18.3845302 L4.14557161,15.5965117 L9.88289879,15.5965117 L9.88289879,18.3845302 L4.14557161,18.3845302 L4.14557161,18.3845302 Z" id="Shape"></path>
            </g>
        </g>
    </g>
</svg>