<?xml version="1.0" encoding="UTF-8" standalone="no"?>
<svg width="28px" height="28px" viewBox="0 0 28 28" version="1.1" xmlns="http://www.w3.org/2000/svg" xmlns:xlink="http://www.w3.org/1999/xlink">
    <!-- Generator: Sketch 47.1 (45422) - http://www.bohemiancoding.com/sketch -->
    <title>settings@1x</title>
    <desc>Created with Sketch.</desc>
    <defs></defs>
    <g id="Symbols" stroke="none" stroke-width="1" fill="none" fill-rule="evenodd">
        <g id="icon/settings" fill-rule="nonzero" fill="#AAABCD">
            <g id="settings" transform="translate(3.047619, 4.000000)">
                <g id="Group" transform="translate(0.438771, 0.854539)">
                    <path d="M11.7006803,19.047619 L11.7006803,9.52380952 L13.6054422,9.52380952 L13.6054422,3.53741497 L11.7006803,3.53741497 L11.7006803,0 L9.52380952,0 L9.52380952,3.53741497 L7.61904762,3.53741497 L7.61904762,9.52380952 L9.52380952,9.52380952 L9.52380952,19.047619 L11.7006803,19.047619 Z M9.79591837,5.71428571 L11.4285714,5.71428571 L11.4285714,7.34693878 L9.79591837,7.34693878 L9.79591837,5.71428571 Z" id="Shape"></path>
                    <path d="M19.3197279,0 L17.1428571,0 L17.1428571,8.70748299 L15.2380952,8.70748299 L15.2380952,14.6938776 L17.1428571,14.6938776 L17.1428571,19.047619 L19.3197279,19.047619 L19.3197279,14.6938776 L21.2244898,14.6938776 L21.2244898,8.70748299 L19.3197279,8.70748299 L19.3197279,0 Z M19.047619,10.8843537 L19.047619,12.5170068 L17.414966,12.5170068 L17.414966,10.8843537 L19.047619,10.8843537 Z" id="Shape"></path>
                    <path d="M4.08163265,19.047619 L4.08163265,14.6938776 L5.98639456,14.6938776 L5.98639456,8.70748299 L4.08163265,8.70748299 L4.08163265,0 L1.9047619,0 L1.9047619,8.70748299 L0,8.70748299 L0,14.6938776 L1.9047619,14.6938776 L1.9047619,19.047619 L4.08163265,19.047619 Z M2.17687075,10.8843537 L3.80952381,10.8843537 L3.80952381,12.5170068 L2.17687075,12.5170068 L2.17687075,10.8843537 Z" id="Shape"></path>
                </g>
            </g>
        </g>
    </g>
</svg>